<svg width="60" height="60" viewBox="0 0 60 60" fill="none" xmlns="http://www.w3.org/2000/svg">
<path d="M30 60C46.5685 60 60 46.5685 60 30C60 13.4315 46.5685 0 30 0C13.4315 0 0 13.4315 0 30C0 46.5685 13.4315 60 30 60Z" fill="url(#paint0_linear_136320_2415)"/>
<path fill-rule="evenodd" clip-rule="evenodd" d="M13.5798 29.6834L31.0752 22.1474C39.4066 18.6821 41.1377 18.0801 42.2661 18.0603C42.5143 18.0559 43.0692 18.1174 43.4286 18.4091C43.7322 18.6553 43.8156 18.9881 43.8556 19.2215C43.8956 19.4549 43.9453 19.9869 43.9057 20.4025C43.4542 25.1461 41.5007 36.6579 40.5069 41.9709C40.0863 44.2191 39.2589 44.9729 38.4567 45.0467C36.7145 45.207 35.3916 43.8953 33.7042 42.7892L27.0091 38.292C24.0472 36.3402 25.9673 35.2674 27.6553 33.5142C28.0971 33.0552 35.773 26.0734 35.9215 25.44C35.9395 25.3608 35.9574 25.0656 35.782 24.9096C35.6066 24.7536 35.3476 24.8076 35.1608 24.8495C34.896 24.9096 30.678 27.6975 22.5067 33.2135C21.3094 34.0356 20.2249 34.4363 19.2533 34.4153C18.1821 34.3921 16.1216 33.8096 14.5899 33.3117C12.7111 32.701 11.2179 32.3781 11.348 31.3409C11.4157 30.8007 12.1596 30.2483 13.5797 29.6835L13.5798 29.6834Z" fill="white"/>
<defs>
<linearGradient id="paint0_linear_136320_2415" x1="30" y1="0" x2="30" y2="59.555" gradientUnits="userSpaceOnUse">
<stop stop-color="#2AABEE"/>
<stop offset="1" stop-color="#229ED9"/>
</linearGradient>
</defs>
</svg>
